<mxfile host="Electron" modified="2024-03-27T22:48:08.043Z" agent="Mozilla/5.0 (Windows NT 10.0; Win64; x64) AppleWebKit/537.36 (KHTML, like Gecko) draw.io/24.1.0 Chrome/120.0.6099.109 Electron/28.1.0 Safari/537.36" etag="_GA8qcwiu1Ea98dYvQb1" version="24.1.0" type="device" pages="2">
  <diagram name="UML" id="9qk2JSvUWPtHqdFNF02G">
    <mxGraphModel dx="1839" dy="1682" grid="1" gridSize="10" guides="1" tooltips="1" connect="1" arrows="1" fold="1" page="1" pageScale="1" pageWidth="850" pageHeight="1100" math="0" shadow="0">
      <root>
        <mxCell id="0" />
        <mxCell id="1" parent="0" />
        <mxCell id="-HCFRNEK5ghCJrUJgw7Z-1" value="NegativeSoulShop" style="swimlane;fontStyle=1;align=center;verticalAlign=top;childLayout=stackLayout;horizontal=1;startSize=26;horizontalStack=0;resizeParent=1;resizeParentMax=0;resizeLast=0;collapsible=1;marginBottom=0;whiteSpace=wrap;html=1;" parent="1" vertex="1">
          <mxGeometry x="309" y="21" width="251" height="254" as="geometry" />
        </mxCell>
        <mxCell id="-HCFRNEK5ghCJrUJgw7Z-2" value="AllDowngrades : TArray&amp;lt;Downgrade&amp;gt;&amp;nbsp;" style="text;strokeColor=none;fillColor=none;align=left;verticalAlign=top;spacingLeft=4;spacingRight=4;overflow=hidden;rotatable=0;points=[[0,0.5],[1,0.5]];portConstraint=eastwest;whiteSpace=wrap;html=1;" parent="-HCFRNEK5ghCJrUJgw7Z-1" vertex="1">
          <mxGeometry y="26" width="251" height="26" as="geometry" />
        </mxCell>
        <mxCell id="ej5TG81_k4r4zWDXi-wF-1" value="CurrentDowngrades : TArray&amp;lt;FDowngrade&amp;gt;" style="text;strokeColor=none;fillColor=none;align=left;verticalAlign=top;spacingLeft=4;spacingRight=4;overflow=hidden;rotatable=0;points=[[0,0.5],[1,0.5]];portConstraint=eastwest;whiteSpace=wrap;html=1;" vertex="1" parent="-HCFRNEK5ghCJrUJgw7Z-1">
          <mxGeometry y="52" width="251" height="26" as="geometry" />
        </mxCell>
        <mxCell id="-HCFRNEK5ghCJrUJgw7Z-3" value="" style="line;strokeWidth=1;fillColor=none;align=left;verticalAlign=middle;spacingTop=-1;spacingLeft=3;spacingRight=3;rotatable=0;labelPosition=right;points=[];portConstraint=eastwest;strokeColor=inherit;" parent="-HCFRNEK5ghCJrUJgw7Z-1" vertex="1">
          <mxGeometry y="78" width="251" height="8" as="geometry" />
        </mxCell>
        <mxCell id="-HCFRNEK5ghCJrUJgw7Z-4" value="&lt;div&gt;PickDowngrades()&lt;/div&gt;&lt;div&gt;DowngradeFromString(FDowngrade)&lt;/div&gt;GameOverEventFunction()&lt;br&gt;WaveEndEventFunction()" style="text;strokeColor=none;fillColor=none;align=left;verticalAlign=top;spacingLeft=4;spacingRight=4;overflow=hidden;rotatable=0;points=[[0,0.5],[1,0.5]];portConstraint=eastwest;whiteSpace=wrap;html=1;" parent="-HCFRNEK5ghCJrUJgw7Z-1" vertex="1">
          <mxGeometry y="86" width="251" height="64" as="geometry" />
        </mxCell>
        <mxCell id="-HCFRNEK5ghCJrUJgw7Z-5" value="" style="line;strokeWidth=1;fillColor=none;align=left;verticalAlign=middle;spacingTop=-1;spacingLeft=3;spacingRight=3;rotatable=0;labelPosition=right;points=[];portConstraint=eastwest;strokeColor=inherit;" parent="-HCFRNEK5ghCJrUJgw7Z-1" vertex="1">
          <mxGeometry y="150" width="251" height="8" as="geometry" />
        </mxCell>
        <mxCell id="-HCFRNEK5ghCJrUJgw7Z-6" value="&lt;b&gt;Blueprint Implementation&lt;/b&gt;" style="text;strokeColor=none;fillColor=none;align=center;verticalAlign=top;spacingLeft=4;spacingRight=4;overflow=hidden;rotatable=0;points=[[0,0.5],[1,0.5]];portConstraint=eastwest;whiteSpace=wrap;html=1;" parent="-HCFRNEK5ghCJrUJgw7Z-1" vertex="1">
          <mxGeometry y="158" width="251" height="26" as="geometry" />
        </mxCell>
        <mxCell id="-HCFRNEK5ghCJrUJgw7Z-7" value="&lt;div&gt;Setup of AllDowngrades&lt;/div&gt;Accept Button&lt;div&gt;Refuse Button&lt;/div&gt;&lt;div&gt;Negative Buttons&lt;/div&gt;" style="text;strokeColor=none;fillColor=none;align=left;verticalAlign=top;spacingLeft=4;spacingRight=4;overflow=hidden;rotatable=0;points=[[0,0.5],[1,0.5]];portConstraint=eastwest;whiteSpace=wrap;html=1;" parent="-HCFRNEK5ghCJrUJgw7Z-1" vertex="1">
          <mxGeometry y="184" width="251" height="70" as="geometry" />
        </mxCell>
        <mxCell id="XmlioYuCGCHng5DqhdFh-6" value="" style="edgeStyle=orthogonalEdgeStyle;rounded=0;orthogonalLoop=1;jettySize=auto;html=1;" edge="1" parent="1" source="2XBcyPBolr3xMTNqV-4T-1">
          <mxGeometry relative="1" as="geometry">
            <mxPoint x="110" y="26" as="targetPoint" />
          </mxGeometry>
        </mxCell>
        <mxCell id="2XBcyPBolr3xMTNqV-4T-1" value="struct FDowngrade" style="swimlane;fontStyle=0;childLayout=stackLayout;horizontal=1;startSize=26;fillColor=none;horizontalStack=0;resizeParent=1;resizeParentMax=0;resizeLast=0;collapsible=1;marginBottom=0;whiteSpace=wrap;html=1;" parent="1" vertex="1">
          <mxGeometry x="10" y="83" width="200" height="216" as="geometry" />
        </mxCell>
        <mxCell id="2XBcyPBolr3xMTNqV-4T-3" value="Name : FString" style="text;strokeColor=none;fillColor=none;align=left;verticalAlign=top;spacingLeft=4;spacingRight=4;overflow=hidden;rotatable=0;points=[[0,0.5],[1,0.5]];portConstraint=eastwest;whiteSpace=wrap;html=1;" parent="2XBcyPBolr3xMTNqV-4T-1" vertex="1">
          <mxGeometry y="26" width="200" height="26" as="geometry" />
        </mxCell>
        <mxCell id="XmlioYuCGCHng5DqhdFh-1" value="Category : EDowngradeCategories" style="text;strokeColor=none;fillColor=none;align=left;verticalAlign=top;spacingLeft=4;spacingRight=4;overflow=hidden;rotatable=0;points=[[0,0.5],[1,0.5]];portConstraint=eastwest;whiteSpace=wrap;html=1;" vertex="1" parent="2XBcyPBolr3xMTNqV-4T-1">
          <mxGeometry y="52" width="200" height="26" as="geometry" />
        </mxCell>
        <mxCell id="XmlioYuCGCHng5DqhdFh-19" value="Downgrade : EDowngradeType" style="text;strokeColor=none;fillColor=none;align=left;verticalAlign=top;spacingLeft=4;spacingRight=4;overflow=hidden;rotatable=0;points=[[0,0.5],[1,0.5]];portConstraint=eastwest;whiteSpace=wrap;html=1;" vertex="1" parent="2XBcyPBolr3xMTNqV-4T-1">
          <mxGeometry y="78" width="200" height="26" as="geometry" />
        </mxCell>
        <mxCell id="XmlioYuCGCHng5DqhdFh-35" value="DowngradeAmount : float" style="text;strokeColor=none;fillColor=none;align=left;verticalAlign=top;spacingLeft=4;spacingRight=4;overflow=hidden;rotatable=0;points=[[0,0.5],[1,0.5]];portConstraint=eastwest;whiteSpace=wrap;html=1;" vertex="1" parent="2XBcyPBolr3xMTNqV-4T-1">
          <mxGeometry y="104" width="200" height="26" as="geometry" />
        </mxCell>
        <mxCell id="2XBcyPBolr3xMTNqV-4T-2" value="Description : FString" style="text;strokeColor=none;fillColor=none;align=left;verticalAlign=top;spacingLeft=4;spacingRight=4;overflow=hidden;rotatable=0;points=[[0,0.5],[1,0.5]];portConstraint=eastwest;whiteSpace=wrap;html=1;" parent="2XBcyPBolr3xMTNqV-4T-1" vertex="1">
          <mxGeometry y="130" width="200" height="26" as="geometry" />
        </mxCell>
        <mxCell id="2XBcyPBolr3xMTNqV-4T-4" value="Reward : ERewardType" style="text;strokeColor=none;fillColor=none;align=left;verticalAlign=top;spacingLeft=4;spacingRight=4;overflow=hidden;rotatable=0;points=[[0,0.5],[1,0.5]];portConstraint=eastwest;whiteSpace=wrap;html=1;" parent="2XBcyPBolr3xMTNqV-4T-1" vertex="1">
          <mxGeometry y="156" width="200" height="26" as="geometry" />
        </mxCell>
        <mxCell id="XmlioYuCGCHng5DqhdFh-27" value="" style="line;strokeWidth=1;fillColor=none;align=left;verticalAlign=middle;spacingTop=-1;spacingLeft=3;spacingRight=3;rotatable=0;labelPosition=right;points=[];portConstraint=eastwest;strokeColor=inherit;" vertex="1" parent="2XBcyPBolr3xMTNqV-4T-1">
          <mxGeometry y="182" width="200" height="8" as="geometry" />
        </mxCell>
        <mxCell id="XmlioYuCGCHng5DqhdFh-26" value="FString RewardToString()" style="text;strokeColor=none;fillColor=none;align=left;verticalAlign=top;spacingLeft=4;spacingRight=4;overflow=hidden;rotatable=0;points=[[0,0.5],[1,0.5]];portConstraint=eastwest;whiteSpace=wrap;html=1;" vertex="1" parent="2XBcyPBolr3xMTNqV-4T-1">
          <mxGeometry y="190" width="200" height="26" as="geometry" />
        </mxCell>
        <mxCell id="2XBcyPBolr3xMTNqV-4T-5" value="" style="edgeStyle=orthogonalEdgeStyle;rounded=0;orthogonalLoop=1;jettySize=auto;html=1;entryX=1.003;entryY=0.115;entryDx=0;entryDy=0;entryPerimeter=0;" parent="1" source="-HCFRNEK5ghCJrUJgw7Z-4" target="XmlioYuCGCHng5DqhdFh-1" edge="1">
          <mxGeometry relative="1" as="geometry" />
        </mxCell>
        <mxCell id="XmlioYuCGCHng5DqhdFh-2" value="enum class EDowngradeCategories : int8" style="swimlane;fontStyle=0;childLayout=stackLayout;horizontal=1;startSize=30;fillColor=none;horizontalStack=0;resizeParent=1;resizeParentMax=0;resizeLast=0;collapsible=1;marginBottom=0;whiteSpace=wrap;html=1;" vertex="1" parent="1">
          <mxGeometry x="25" y="-191" width="170" height="212" as="geometry" />
        </mxCell>
        <mxCell id="XmlioYuCGCHng5DqhdFh-3" value="Player" style="text;strokeColor=none;fillColor=none;align=left;verticalAlign=top;spacingLeft=4;spacingRight=4;overflow=hidden;rotatable=0;points=[[0,0.5],[1,0.5]];portConstraint=eastwest;whiteSpace=wrap;html=1;" vertex="1" parent="XmlioYuCGCHng5DqhdFh-2">
          <mxGeometry y="30" width="170" height="26" as="geometry" />
        </mxCell>
        <mxCell id="XmlioYuCGCHng5DqhdFh-4" value="Enemy" style="text;strokeColor=none;fillColor=none;align=left;verticalAlign=top;spacingLeft=4;spacingRight=4;overflow=hidden;rotatable=0;points=[[0,0.5],[1,0.5]];portConstraint=eastwest;whiteSpace=wrap;html=1;" vertex="1" parent="XmlioYuCGCHng5DqhdFh-2">
          <mxGeometry y="56" width="170" height="26" as="geometry" />
        </mxCell>
        <mxCell id="XmlioYuCGCHng5DqhdFh-5" value="Wave" style="text;strokeColor=none;fillColor=none;align=left;verticalAlign=top;spacingLeft=4;spacingRight=4;overflow=hidden;rotatable=0;points=[[0,0.5],[1,0.5]];portConstraint=eastwest;whiteSpace=wrap;html=1;" vertex="1" parent="XmlioYuCGCHng5DqhdFh-2">
          <mxGeometry y="82" width="170" height="26" as="geometry" />
        </mxCell>
        <mxCell id="XmlioYuCGCHng5DqhdFh-8" value="Placeables" style="text;strokeColor=none;fillColor=none;align=left;verticalAlign=top;spacingLeft=4;spacingRight=4;overflow=hidden;rotatable=0;points=[[0,0.5],[1,0.5]];portConstraint=eastwest;whiteSpace=wrap;html=1;" vertex="1" parent="XmlioYuCGCHng5DqhdFh-2">
          <mxGeometry y="108" width="170" height="26" as="geometry" />
        </mxCell>
        <mxCell id="XmlioYuCGCHng5DqhdFh-9" value="Sentients" style="text;strokeColor=none;fillColor=none;align=left;verticalAlign=top;spacingLeft=4;spacingRight=4;overflow=hidden;rotatable=0;points=[[0,0.5],[1,0.5]];portConstraint=eastwest;whiteSpace=wrap;html=1;" vertex="1" parent="XmlioYuCGCHng5DqhdFh-2">
          <mxGeometry y="134" width="170" height="26" as="geometry" />
        </mxCell>
        <mxCell id="XmlioYuCGCHng5DqhdFh-10" value="Traps" style="text;strokeColor=none;fillColor=none;align=left;verticalAlign=top;spacingLeft=4;spacingRight=4;overflow=hidden;rotatable=0;points=[[0,0.5],[1,0.5]];portConstraint=eastwest;whiteSpace=wrap;html=1;" vertex="1" parent="XmlioYuCGCHng5DqhdFh-2">
          <mxGeometry y="160" width="170" height="26" as="geometry" />
        </mxCell>
        <mxCell id="XmlioYuCGCHng5DqhdFh-11" value="Souls" style="text;strokeColor=none;fillColor=none;align=left;verticalAlign=top;spacingLeft=4;spacingRight=4;overflow=hidden;rotatable=0;points=[[0,0.5],[1,0.5]];portConstraint=eastwest;whiteSpace=wrap;html=1;" vertex="1" parent="XmlioYuCGCHng5DqhdFh-2">
          <mxGeometry y="186" width="170" height="26" as="geometry" />
        </mxCell>
        <mxCell id="XmlioYuCGCHng5DqhdFh-12" value="enum class&lt;div&gt;ERewardType&lt;/div&gt;" style="swimlane;fontStyle=0;childLayout=stackLayout;horizontal=1;startSize=33;fillColor=none;horizontalStack=0;resizeParent=1;resizeParentMax=0;resizeLast=0;collapsible=1;marginBottom=0;whiteSpace=wrap;html=1;" vertex="1" parent="1">
          <mxGeometry x="-350" y="-180" width="140" height="137" as="geometry" />
        </mxCell>
        <mxCell id="XmlioYuCGCHng5DqhdFh-13" value="Player" style="text;strokeColor=none;fillColor=none;align=left;verticalAlign=top;spacingLeft=4;spacingRight=4;overflow=hidden;rotatable=0;points=[[0,0.5],[1,0.5]];portConstraint=eastwest;whiteSpace=wrap;html=1;" vertex="1" parent="XmlioYuCGCHng5DqhdFh-12">
          <mxGeometry y="33" width="140" height="26" as="geometry" />
        </mxCell>
        <mxCell id="XmlioYuCGCHng5DqhdFh-14" value="Placeables" style="text;strokeColor=none;fillColor=none;align=left;verticalAlign=top;spacingLeft=4;spacingRight=4;overflow=hidden;rotatable=0;points=[[0,0.5],[1,0.5]];portConstraint=eastwest;whiteSpace=wrap;html=1;" vertex="1" parent="XmlioYuCGCHng5DqhdFh-12">
          <mxGeometry y="59" width="140" height="26" as="geometry" />
        </mxCell>
        <mxCell id="XmlioYuCGCHng5DqhdFh-15" value="Sentients" style="text;strokeColor=none;fillColor=none;align=left;verticalAlign=top;spacingLeft=4;spacingRight=4;overflow=hidden;rotatable=0;points=[[0,0.5],[1,0.5]];portConstraint=eastwest;whiteSpace=wrap;html=1;" vertex="1" parent="XmlioYuCGCHng5DqhdFh-12">
          <mxGeometry y="85" width="140" height="26" as="geometry" />
        </mxCell>
        <mxCell id="XmlioYuCGCHng5DqhdFh-17" value="Traps" style="text;strokeColor=none;fillColor=none;align=left;verticalAlign=top;spacingLeft=4;spacingRight=4;overflow=hidden;rotatable=0;points=[[0,0.5],[1,0.5]];portConstraint=eastwest;whiteSpace=wrap;html=1;" vertex="1" parent="XmlioYuCGCHng5DqhdFh-12">
          <mxGeometry y="111" width="140" height="26" as="geometry" />
        </mxCell>
        <mxCell id="XmlioYuCGCHng5DqhdFh-16" value="" style="edgeStyle=orthogonalEdgeStyle;rounded=0;orthogonalLoop=1;jettySize=auto;html=1;entryX=0.487;entryY=0.985;entryDx=0;entryDy=0;entryPerimeter=0;exitX=0;exitY=0.5;exitDx=0;exitDy=0;" edge="1" parent="1" source="2XBcyPBolr3xMTNqV-4T-4" target="XmlioYuCGCHng5DqhdFh-17">
          <mxGeometry relative="1" as="geometry">
            <mxPoint x="-89" y="-40" as="targetPoint" />
          </mxGeometry>
        </mxCell>
        <mxCell id="XmlioYuCGCHng5DqhdFh-20" value="enum class&lt;div&gt;EDowngradeType&lt;/div&gt;" style="swimlane;fontStyle=0;childLayout=stackLayout;horizontal=1;startSize=26;fillColor=none;horizontalStack=0;resizeParent=1;resizeParentMax=0;resizeLast=0;collapsible=1;marginBottom=0;whiteSpace=wrap;html=1;" vertex="1" parent="1">
          <mxGeometry x="-160" y="-240" width="140" height="182" as="geometry" />
        </mxCell>
        <mxCell id="XmlioYuCGCHng5DqhdFh-21" value="LessSouls" style="text;strokeColor=none;fillColor=none;align=left;verticalAlign=top;spacingLeft=4;spacingRight=4;overflow=hidden;rotatable=0;points=[[0,0.5],[1,0.5]];portConstraint=eastwest;whiteSpace=wrap;html=1;" vertex="1" parent="XmlioYuCGCHng5DqhdFh-20">
          <mxGeometry y="26" width="140" height="26" as="geometry" />
        </mxCell>
        <mxCell id="XmlioYuCGCHng5DqhdFh-22" value="MoreSouls" style="text;strokeColor=none;fillColor=none;align=left;verticalAlign=top;spacingLeft=4;spacingRight=4;overflow=hidden;rotatable=0;points=[[0,0.5],[1,0.5]];portConstraint=eastwest;whiteSpace=wrap;html=1;" vertex="1" parent="XmlioYuCGCHng5DqhdFh-20">
          <mxGeometry y="52" width="140" height="26" as="geometry" />
        </mxCell>
        <mxCell id="XmlioYuCGCHng5DqhdFh-23" value="LowShootSpeed" style="text;strokeColor=none;fillColor=none;align=left;verticalAlign=top;spacingLeft=4;spacingRight=4;overflow=hidden;rotatable=0;points=[[0,0.5],[1,0.5]];portConstraint=eastwest;whiteSpace=wrap;html=1;" vertex="1" parent="XmlioYuCGCHng5DqhdFh-20">
          <mxGeometry y="78" width="140" height="26" as="geometry" />
        </mxCell>
        <mxCell id="XmlioYuCGCHng5DqhdFh-28" value="LowDamage" style="text;strokeColor=none;fillColor=none;align=left;verticalAlign=top;spacingLeft=4;spacingRight=4;overflow=hidden;rotatable=0;points=[[0,0.5],[1,0.5]];portConstraint=eastwest;whiteSpace=wrap;html=1;" vertex="1" parent="XmlioYuCGCHng5DqhdFh-20">
          <mxGeometry y="104" width="140" height="26" as="geometry" />
        </mxCell>
        <mxCell id="XmlioYuCGCHng5DqhdFh-29" value="LowMovement" style="text;strokeColor=none;fillColor=none;align=left;verticalAlign=top;spacingLeft=4;spacingRight=4;overflow=hidden;rotatable=0;points=[[0,0.5],[1,0.5]];portConstraint=eastwest;whiteSpace=wrap;html=1;" vertex="1" parent="XmlioYuCGCHng5DqhdFh-20">
          <mxGeometry y="130" width="140" height="26" as="geometry" />
        </mxCell>
        <mxCell id="XmlioYuCGCHng5DqhdFh-34" value="LowPlaceableDamage" style="text;strokeColor=none;fillColor=none;align=left;verticalAlign=top;spacingLeft=4;spacingRight=4;overflow=hidden;rotatable=0;points=[[0,0.5],[1,0.5]];portConstraint=eastwest;whiteSpace=wrap;html=1;" vertex="1" parent="XmlioYuCGCHng5DqhdFh-20">
          <mxGeometry y="156" width="140" height="26" as="geometry" />
        </mxCell>
        <mxCell id="XmlioYuCGCHng5DqhdFh-25" value="" style="edgeStyle=orthogonalEdgeStyle;rounded=0;orthogonalLoop=1;jettySize=auto;html=1;exitX=0;exitY=0.5;exitDx=0;exitDy=0;" edge="1" parent="1" source="XmlioYuCGCHng5DqhdFh-19">
          <mxGeometry relative="1" as="geometry">
            <mxPoint x="-88" y="-60" as="targetPoint" />
          </mxGeometry>
        </mxCell>
        <mxCell id="XmlioYuCGCHng5DqhdFh-36" value="Consider Strategy Pattern for this" style="shape=note;size=20;whiteSpace=wrap;html=1;strokeColor=#3333FF;" vertex="1" parent="1">
          <mxGeometry x="370" y="-169" width="100" height="100" as="geometry" />
        </mxCell>
      </root>
    </mxGraphModel>
  </diagram>
  <diagram id="Ae6j8DptNNji8SsoEjr1" name="UI Design">
    <mxGraphModel dx="3735" dy="688" grid="1" gridSize="10" guides="1" tooltips="1" connect="1" arrows="1" fold="1" page="1" pageScale="1" pageWidth="850" pageHeight="1100" math="0" shadow="0">
      <root>
        <mxCell id="0" />
        <mxCell id="1" parent="0" />
        <mxCell id="_Y9xO4V0F36HJOAGVuhp-2" value="" style="rounded=0;whiteSpace=wrap;html=1;" parent="1" vertex="1">
          <mxGeometry x="-2087.5" y="190" width="800" height="600" as="geometry" />
        </mxCell>
        <mxCell id="_Y9xO4V0F36HJOAGVuhp-3" value="Castle" style="rounded=0;whiteSpace=wrap;html=1;fillColor=#647687;fontColor=#ffffff;strokeColor=#314354;" parent="1" vertex="1">
          <mxGeometry x="-2072.5" y="680" width="770" height="40" as="geometry" />
        </mxCell>
        <mxCell id="_Y9xO4V0F36HJOAGVuhp-4" value="Player" style="ellipse;whiteSpace=wrap;html=1;aspect=fixed;fillColor=#008a00;fontColor=#ffffff;strokeColor=#005700;" parent="1" vertex="1">
          <mxGeometry x="-1727.5" y="610" width="80" height="80" as="geometry" />
        </mxCell>
        <mxCell id="_Y9xO4V0F36HJOAGVuhp-5" value="" style="rounded=1;whiteSpace=wrap;html=1;fillColor=#524563;" parent="1" vertex="1">
          <mxGeometry x="-1937.5" y="320" width="500" height="340" as="geometry" />
        </mxCell>
        <mxCell id="_Y9xO4V0F36HJOAGVuhp-6" value="&lt;font style=&quot;font-size: 14px;&quot;&gt;Select and accept becoming weaker and the dragon gods will reward you after surviving a battle&lt;/font&gt;" style="text;html=1;strokeColor=none;fillColor=none;align=center;verticalAlign=middle;whiteSpace=wrap;rounded=0;" parent="1" vertex="1">
          <mxGeometry x="-1816.37" y="370" width="257.75" height="40" as="geometry" />
        </mxCell>
        <mxCell id="_Y9xO4V0F36HJOAGVuhp-7" value="&lt;font style=&quot;font-size: 22px;&quot;&gt;Negative Soul Shop&lt;/font&gt;" style="text;html=1;strokeColor=none;fillColor=none;align=center;verticalAlign=middle;whiteSpace=wrap;rounded=0;fontStyle=1" parent="1" vertex="1">
          <mxGeometry x="-1795.1599999999999" y="332.5" width="215.32" height="30" as="geometry" />
        </mxCell>
        <mxCell id="_Y9xO4V0F36HJOAGVuhp-8" value="Downgrade 1&lt;div&gt;&lt;br&gt;&lt;/div&gt;&lt;div&gt;Player&lt;br&gt;&lt;br&gt;Description&lt;br&gt;&lt;br&gt;Reward&lt;/div&gt;" style="rounded=1;whiteSpace=wrap;html=1;fillColor=#7D001D;fontColor=#ffffff;strokeColor=#FFFFFF;" parent="1" vertex="1">
          <mxGeometry x="-1886.5" y="435" width="119" height="115" as="geometry" />
        </mxCell>
        <mxCell id="_Y9xO4V0F36HJOAGVuhp-9" value="Downgrade 2&lt;div&gt;&lt;br&gt;&lt;/div&gt;&lt;div&gt;Placeable&lt;br&gt;&lt;br&gt;Description&lt;br&gt;&lt;br&gt;Reward&lt;/div&gt;" style="rounded=1;whiteSpace=wrap;html=1;fillColor=#7D001D;" parent="1" vertex="1">
          <mxGeometry x="-1747" y="435" width="119" height="115" as="geometry" />
        </mxCell>
        <mxCell id="_Y9xO4V0F36HJOAGVuhp-10" value="Downgrade 3&lt;div&gt;&lt;br&gt;&lt;/div&gt;&lt;div&gt;Traps&lt;br&gt;&lt;br&gt;Description&lt;br&gt;&lt;br&gt;Reward&lt;/div&gt;" style="rounded=1;whiteSpace=wrap;html=1;fillColor=#7D001D;" parent="1" vertex="1">
          <mxGeometry x="-1609.5" y="435" width="119" height="115" as="geometry" />
        </mxCell>
        <mxCell id="_Y9xO4V0F36HJOAGVuhp-11" value="&lt;font style=&quot;font-size: 16px;&quot;&gt;Refuse&lt;/font&gt;" style="rounded=1;whiteSpace=wrap;html=1;fillColor=#1ba1e2;strokeColor=#006EAF;fontColor=#ffffff;" parent="1" vertex="1">
          <mxGeometry x="-1850" y="590" width="130" height="50" as="geometry" />
        </mxCell>
        <mxCell id="_Y9xO4V0F36HJOAGVuhp-12" value="&lt;span style=&quot;font-size: 16px;&quot;&gt;Accept&lt;/span&gt;" style="rounded=1;whiteSpace=wrap;html=1;fillColor=#1ba1e2;strokeColor=#006EAF;fontColor=#ffffff;opacity=50;" parent="1" vertex="1">
          <mxGeometry x="-1680" y="590" width="130" height="50" as="geometry" />
        </mxCell>
        <mxCell id="_Y9xO4V0F36HJOAGVuhp-13" value="" style="endArrow=classic;html=1;rounded=0;entryX=1;entryY=0.5;entryDx=0;entryDy=0;exitX=0;exitY=0.5;exitDx=0;exitDy=0;exitPerimeter=0;" parent="1" source="_Y9xO4V0F36HJOAGVuhp-14" target="_Y9xO4V0F36HJOAGVuhp-12" edge="1">
          <mxGeometry width="50" height="50" relative="1" as="geometry">
            <mxPoint x="-2120" y="630" as="sourcePoint" />
            <mxPoint x="-1830" y="610" as="targetPoint" />
          </mxGeometry>
        </mxCell>
        <mxCell id="_Y9xO4V0F36HJOAGVuhp-14" value="Grayed out until the player selects a downgrade" style="shape=note;size=20;whiteSpace=wrap;html=1;strokeColor=#3333FF;" parent="1" vertex="1">
          <mxGeometry x="-1240" y="577.5" width="100" height="100" as="geometry" />
        </mxCell>
      </root>
    </mxGraphModel>
  </diagram>
</mxfile>
